<svg width="1024" height="1024" xmlns="http://www.w3.org/2000/svg" xml:space="preserve" version="1.1">
 <defs>
  <filter height="200%" width="200%" y="-50%" x="-50%" id="svg_8_blur">
   <feGaussianBlur stdDeviation="10" in="SourceGraphic"/>
  </filter>
 </defs>
 <g>
  <title>Layer 1</title>
  <rect id="svg_16" height="1024" width="1024" y="0" x="0" fill="#c9c2b5"/>
  <g stroke-width="0" id="svg_1">
   <path id="svg_2" fill="#4B4B4B" d="m571.883,487.15l82.752,-115.13c7.152,-9.942 11.039,-21.784 11.039,-33.93l0,-35.96l23.911,0l0,-46.13l-355.17,0l0,46.13l23.912,0l0,35.96c0,12.145 3.886,23.988 11.039,33.93l82.752,115.13c2.963,4.136 4.472,8.857 4.483,13.665l0,22.36c-0.011,4.808 -1.52,9.53 -4.483,13.665l-82.752,115.141c-7.154,9.942 -11.039,21.783 -11.039,33.918l0,35.971l-23.912,0l0,46.13l355.169,0l0,-46.129l-23.911,0l0,-35.971c0,-12.135 -3.887,-23.976 -11.039,-33.918l-82.751,-115.142c-2.963,-4.136 -4.482,-8.857 -4.482,-13.665l0,-22.36c0,-4.808 1.519,-9.529 4.482,-13.665zm70.726,230.107l-261.216,0l0,-31.357c0,-7.229 2.291,-14.317 6.696,-20.46l82.753,-115.141c5.708,-7.934 8.824,-17.41 8.824,-27.124l0,-22.36c0,-9.714 -3.115,-19.202 -8.824,-27.124l-82.742,-115.13c-4.417,-6.155 -6.708,-13.232 -6.708,-20.471l0,-31.347l261.216,0l0,31.347c-0.011,7.239 -2.291,14.316 -6.709,20.471l-82.752,115.13c-5.698,7.922 -8.813,17.41 -8.813,27.124l0,22.36c0,9.714 3.114,19.19 8.813,27.124l82.763,115.141c4.407,6.143 6.686,13.231 6.698,20.46l0,31.357l0.001,0z" class="st0"/>
   <path id="svg_3" fill="#4B4B4B" d="m492.268,488.929l39.466,0c1.672,-8.314 5.091,-16.237 10.181,-23.314l59.491,-82.774l-178.811,0l59.492,82.774c5.09,7.077 8.498,15.001 10.181,23.314z" class="st0"/>
   <path id="svg_4" fill="#4B4B4B" d="m502.753,637.588l-65.82,65.831l150.134,0l-65.82,-65.831c-5.11,-5.101 -13.382,-5.101 -18.494,0z" class="st0"/>
   <path id="svg_5" fill="#4B4B4B" d="m511.632,503.995c-5.688,0 -10.301,4.614 -10.301,10.312c0,5.688 4.614,10.3 10.301,10.3c5.687,0 10.311,-4.612 10.311,-10.3c0,-5.698 -4.624,-10.312 -10.311,-10.312z" class="st0"/>
   <path id="svg_6" fill="#4B4B4B" d="m511.632,545.513c-5.688,0 -10.301,4.613 -10.301,10.3c0,5.698 4.614,10.312 10.301,10.312c5.687,0 10.311,-4.614 10.311,-10.312c0,-5.687 -4.624,-10.3 -10.311,-10.3z" class="st0"/>
   <path id="svg_7" fill="#4B4B4B" d="m511.632,588.245c-5.688,0 -10.301,4.613 -10.301,10.311c0,5.687 4.614,10.312 10.301,10.312c5.687,0 10.311,-4.625 10.311,-10.312c0,-5.698 -4.624,-10.311 -10.311,-10.311z" class="st0"/>
  </g>
  <g stroke-width="0" id="svg_14">
   <path filter="url(#svg_8_blur)" id="svg_8" fill="#4B4B4B" d="m571.88298,487.15001l82.752,-115.13c7.152,-9.942 11.039,-21.784 11.039,-33.93l0,-35.96l23.911,0l0,-46.13l-355.17,0l0,46.13l23.912,0l0,35.96c0,12.145 3.886,23.988 11.039,33.93l82.752,115.13c2.963,4.136 4.472,8.857 4.483,13.665l0,22.36c-0.011,4.808 -1.52,9.53 -4.483,13.665l-82.752,115.141c-7.154,9.942 -11.039,21.783 -11.039,33.918l0,35.971l-23.912,0l0,46.13l355.169,0l0,-46.129l-23.911,0l0,-35.971c0,-12.135 -3.887,-23.976 -11.039,-33.918l-82.751,-115.142c-2.963,-4.136 -4.482,-8.857 -4.482,-13.665l0,-22.36c0,-4.808 1.519,-9.529 4.482,-13.665zm70.726,230.107l-261.216,0l0,-31.357c0,-7.229 2.291,-14.317 6.696,-20.46l82.753,-115.141c5.708,-7.934 8.824,-17.41 8.824,-27.124l0,-22.36c0,-9.714 -3.115,-19.202 -8.824,-27.124l-82.742,-115.13c-4.417,-6.155 -6.708,-13.232 -6.708,-20.471l0,-31.347l261.216,0l0,31.347c-0.011,7.239 -2.291,14.316 -6.709,20.471l-82.752,115.13c-5.698,7.922 -8.813,17.41 -8.813,27.124l0,22.36c0,9.714 3.114,19.19 8.813,27.124l82.763,115.141c4.407,6.143 6.686,13.231 6.698,20.46l0,31.357l0.001,0z" class="st0"/>
   <path id="svg_9" fill="#4B4B4B" d="m492.26798,488.92901l39.466,0c1.672,-8.314 5.091,-16.237 10.181,-23.314l59.491,-82.774l-178.811,0l59.492,82.774c5.09,7.077 8.498,15.001 10.181,23.314z" class="st0"/>
   <path id="svg_10" fill="#4B4B4B" d="m502.75298,637.58801l-65.82,65.831l150.134,0l-65.82,-65.831c-5.11,-5.101 -13.382,-5.101 -18.494,0z" class="st0"/>
   <path id="svg_11" fill="#4B4B4B" d="m511.63198,503.99501c-5.688,0 -10.301,4.614 -10.301,10.312c0,5.688 4.614,10.3 10.301,10.3c5.687,0 10.311,-4.612 10.311,-10.3c0,-5.698 -4.624,-10.312 -10.311,-10.312z" class="st0"/>
   <path id="svg_12" fill="#4B4B4B" d="m511.63198,545.51301c-5.688,0 -10.301,4.613 -10.301,10.3c0,5.698 4.614,10.312 10.301,10.312c5.687,0 10.311,-4.614 10.311,-10.312c0,-5.687 -4.624,-10.3 -10.311,-10.3z" class="st0"/>
   <path id="svg_13" fill="#4B4B4B" d="m511.63198,588.24501c-5.688,0 -10.301,4.613 -10.301,10.311c0,5.687 4.614,10.312 10.301,10.312c5.687,0 10.311,-4.625 10.311,-10.312c0,-5.698 -4.624,-10.311 -10.311,-10.311z" class="st0"/>
  </g>
 </g>
</svg>